Coordinates
version=1
nRows=4
nColumns=63
inDegrees=yes

Units are S.I. units (second, meters, Newtons, ...)
If the header above contains a line with 'inDegrees', this indicates whether rotational values are in degrees (yes) or radians (no).

endheader
time	pelvis_tilt	pelvis_list	pelvis_rotation	pelvis_tx	pelvis_ty	pelvis_tz	hip_flexion_r	hip_adduction_r	hip_rotation_r	knee_angle_r	knee_angle_r_beta	ankle_angle_r	subtalar_angle_r	mtp_angle_r	hip_flexion_l	hip_adduction_l	hip_rotation_l	knee_angle_l	knee_angle_l_beta	ankle_angle_l	subtalar_angle_l	mtp_angle_l	L5_S1_Flex_Ext	L5_S1_Lat_Bending	L5_S1_axial_rotation	L4_L5_Flex_Ext	L4_L5_Lat_Bending	L4_L5_axial_rotation	L3_L4_Flex_Ext	L3_L4_Lat_Bending	L3_L4_axial_rotation	L2_L3_Flex_Ext	L2_L3_Lat_Bending	L2_L3_axial_rotation	L1_L2_Flex_Ext	L1_L2_Lat_Bending	L1_L2_axial_rotation	L1_T12_Flex_Ext	L1_T12_Lat_Bending	L1_T12_axial_rotation	Abs_r3	Abs_r2	Abs_r1	Abs_t1	Abs_t2	neck_flexion	neck_bending	neck_rotation	arm_flex_r	arm_add_r	arm_rot_r	elbow_flex_r	pro_sup_r	wrist_flex_r	wrist_dev_r	arm_flex_l	arm_add_l	arm_rot_l	elbow_flex_l	pro_sup_l	wrist_flex_l	wrist_dev_l
      0.98333333	     -0.56740111	     -1.26360967	     69.11345848	      0.21693755	      0.97898698	      0.48138214	      1.69550692	      2.93885101	     11.14895930	     11.22828322	      0.19597051	     21.54749683	    -15.61894686	      0.00000000	     -2.31121226	     -3.13064860	      2.16042095	      3.64080819	      0.06354409	     28.27578971	     -1.52028533	      0.00000000	     -0.01802415	      0.60680409	      1.29953908	     -0.03347265	      0.80704944	      1.38076027	     -0.02961188	      1.47538347	      1.38076027	     -0.02059980	      1.47538347	      1.13709670	     -0.01673723	      1.23739490	      1.05587550	     -0.01029900	      0.93993954	      0.97465431	     -0.12874472	      6.86428925	      7.22764651	      0.00000000	      0.00000000	     19.77317340	     -6.30033058	     -4.89040108	      4.20087299	    -15.97999418	     57.01407508	     21.24517457	     45.41951576	     -7.84627566	     -3.56494383	     17.89993598	     -7.10176750	    127.67677920	     13.46317646	     17.66081072	     -3.91812214	    -11.23569081
      1.00000000	     -0.28734792	     -1.09045716	     69.23247909	      0.21698126	      0.97932711	      0.48093460	      1.40810716	      3.18576983	     11.39408360	     11.27413877	      0.19677084	     21.16003221	    -15.99078310	      0.00000000	     -2.54432159	     -3.35939535	      2.07549423	      3.71763843	      0.06488503	     28.38040456	     -1.28888393	      0.00000000	     -0.04692939	      0.63763156	      1.29731875	     -0.08715257	      0.84804998	      1.37840117	     -0.07710029	      1.55033738	      1.37840117	     -0.05363560	      1.55033738	      1.13515391	     -0.04357863	      1.30025828	      1.05407148	     -0.02681545	      0.98769129	      0.97298906	     -0.33521192	      7.21301575	      7.21529769	      0.00000000	      0.00000000	     18.84224912	     -6.49720497	     -4.41472725	      4.08752841	    -16.02118757	     57.11655806	     20.95249419	     45.20426003	     -7.87116670	     -3.66338603	     17.88930039	     -7.01457240	    128.40060005	     13.39753123	     18.19271258	     -4.18863555	    -10.78034497
      1.01666667	     -0.12499101	     -0.94054998	     69.19480158	      0.21734258	      0.97960599	      0.48052853	      1.19119556	      3.33260398	     11.81294321	     11.36444362	      0.19834696	     20.72462662	    -16.44072233	      0.00000000	     -2.69787062	     -3.49447797	      1.36073719	      3.81686025	      0.06661678	     28.75669224	     -0.37078496	      0.00000000	     -0.07415308	      0.65112315	      1.34961430	     -0.13770969	      0.86599379	      1.43396519	     -0.12182610	      1.58314082	      1.43396519	     -0.08474956	      1.58314082	      1.18091251	     -0.06885855	      1.32777032	      1.09656162	     -0.04237107	      1.00858975	      1.01221072	     -0.52966806	      7.36563526	      7.50614985	      0.00000000	      0.00000000	     18.21476091	     -6.52571155	     -4.12672718	      4.02634389	    -15.95572744	     57.53252707	     20.53068068	     44.72733908	     -7.75488043	     -3.92879485	     17.96871487	     -6.93404341	    129.04639820	     13.34974948	     19.53115546	     -4.47958115	    -10.19277722
      1.03333333	     -0.20028153	     -0.68822488	     69.10860614	      0.21833233	      0.98021824	      0.48015027	      0.96238183	      3.21655444	     12.00426706	     11.48006007	      0.20036485	     20.55580911	    -16.52699173	      0.00000000	     -3.08999487	     -3.31462862	      2.58145106	      3.43818080	      0.06000758	     28.17969509	     -2.14045928	      0.00000000	     -0.09808922	      0.62022320	      1.36907324	     -0.18216149	      0.82489685	      1.45464031	     -0.16115078	      1.50801069	      1.45464031	     -0.11210617	      1.50801069	      1.19793908	     -0.09108565	      1.26475915	      1.11237200	     -0.05604818	      0.96072574	      1.02680493	     -0.70064150	      7.01608887	      7.61437461	      0.00000000	      0.00000000	     17.49381011	     -6.16960741	     -3.88227736	      6.81654991	    -15.27770425	     78.66601765	     17.25222386	     24.64129447	     -6.26502169	     -8.07565994	     18.32135297	     -6.56217130	    137.35016393	     12.82131230	     13.48947083	     -4.10284522	    -10.52474720
